<svg width="16" height="16" viewBox="0 0 16 14" fill-rule="evenodd" clip-rule="evenodd" xmlns="http://www.w3.org/2000/svg">
    <path fill-rule="evenodd" clip-rule="evenodd" d="M7.13911 0.492585C7.52586 -0.164195 8.47577 -0.164195 8.86251 0.492585L15.8618 12.3789C16.2544 13.0455 15.7737 13.8863 15.0001 13.8863H1.00152C0.227899 13.8863 -0.252729 13.0455 0.139817 12.3789L7.13911 0.492585ZM9.09999 12C9.09999 12.5523 8.60751 13 7.99999 13C7.39248 13 6.89999 12.5523 6.89999 12C6.89999 11.4477 7.39248 11 7.99999 11C8.60751 11 9.09999 11.4477 9.09999 12ZM8 3C7.44772 3 7 3.44772 7 4V9C7 9.55228 7.44772 10 8 10C8.55229 10 9 9.55229 9 9V4C9 3.44772 8.55229 3 8 3Z" />
</svg>
