<svg width="19" height="18" viewBox="0 0 19 18" fill="none" xmlns="http://www.w3.org/2000/svg">
    <path d="M14.659 0C14.409 0 14.149 0.1 13.959 0.29L12.8361 1.41289C12.4456 1.80342 12.4456 2.43658 12.8361 2.82711L15.1719 5.16289C15.5624 5.55342 16.1956 5.55342 16.5861 5.16289L17.709 4.04C18.099 3.65 18.099 3.02 17.709 2.63L15.369 0.29C15.169 0.09 14.919 0 14.659 0ZM10.599 6.48C10.8531 6.22595 11.265 6.22595 11.519 6.48C11.7731 6.73405 11.7731 7.14595 11.519 7.4L3.10956 15.8095C2.98756 15.9315 2.8221 16 2.64956 16C2.29028 16 1.99902 15.7087 1.99902 15.3495C1.99902 15.1769 2.06756 15.0115 2.18956 14.8895L10.599 6.48ZM-0.000976562 14.6642C-0.000976562 14.399 0.10438 14.1446 0.291916 13.9571L10.3519 3.89711C10.7424 3.50658 11.3756 3.50658 11.7661 3.89711L14.1019 6.23289C14.4924 6.62342 14.4924 7.25658 14.1019 7.64711L4.04192 17.7071C3.85438 17.8946 3.60003 18 3.33481 18H0.999023C0.446739 18 -0.000976562 17.5523 -0.000976562 17V14.6642Z" />
</svg>
