<svg width="210" height="210" viewBox="0 0 210 210"  xmlns="http://www.w3.org/2000/svg">
    <path d="M166.16 19.6511C148.327 6.87208 126.939 0 105 0V105L105 105V17.4997C123.283 17.4997 141.106 23.2265 155.967 33.8757C170.828 44.5248 181.98 59.5615 187.857 76.8738C193.733 94.1861 194.04 112.904 188.733 130.4C183.425 147.895 172.771 163.288 158.267 174.418C143.762 185.548 126.136 191.855 107.863 192.453C89.5905 193.051 71.5893 187.911 56.388 177.753C41.1866 167.596 29.5486 152.932 23.1086 135.822C16.6686 118.711 15.75 100.013 20.4817 82.3534L3.57777 77.824C-2.10046 99.0155 -0.99815 121.453 6.72989 141.986C14.4579 162.519 28.4235 180.116 46.6651 192.304C64.9068 204.493 86.5082 210.662 108.436 209.944C130.363 209.226 151.515 201.658 168.92 188.302C186.325 174.946 199.11 156.474 205.479 135.48C211.847 114.485 211.48 92.0236 204.428 71.2488C197.376 50.4741 183.993 32.4301 166.16 19.6511Z" />
</svg>
